# xmcd
#
# Track frame offsets:
#	150
#	13385
#	27727
#	42325
#	53567
#	79222
#	94462
#	104312
#	115720
#	128772
#	143617
#	160332
#
# Disc length: 2431 seconds
#
# Revision: 1
# Processed by: cddbd v1.5.1PL0 Copyright (c) Steve Scherf et al.
# Submitted via: CDex 1.50Beta5
#
DISCID=a0097d0c
DTITLE=小椋佳 - 帰っちゃおうかな
DYEAR=1991
DGENRE=Pop
TTITLE0=想い出して下さい
TTITLE1=帰っちゃおうかな
TTITLE2=走らないで下さい
TTITLE3=風の足跡
TTITLE4=公園に来て
TTITLE5=大いなる旅路
TTITLE6=うす紅色の
TTITLE7=名もない魚
TTITLE8=この胸の高なりを
TTITLE9=陽だまりの仲間達
TTITLE10=風車まわれ
TTITLE11=愛がこわれそう
EXTD=
EXTT0=
EXTT1=
EXTT2=
EXTT3=
EXTT4=
EXTT5=
EXTT6=
EXTT7=
EXTT8=
EXTT9=
EXTT10=
EXTT11=
PLAYORDER=
